<?xml version="1.0" encoding="UTF-8"?>
<svg id="Warstwa_1" data-name="Warstwa 1" xmlns="http://www.w3.org/2000/svg" xmlns:xlink="http://www.w3.org/1999/xlink" viewBox="0 0 583.65 141.02">
  <defs>
    <style>
      .cls-1 {
        fill: url(#Gradient_bez_nazwy_7);
      }

      .cls-2 {
        fill: #fab80e;
      }

      .cls-3 {
        fill: url(#Gradient_bez_nazwy_7-2);
      }

      .cls-4 {
        fill: url(#Gradient_bez_nazwy_7-3);
      }
    </style>
    <linearGradient id="Gradient_bez_nazwy_7" data-name="Gradient bez nazwy 7" x1="6.52" y1="42.62" x2="141.62" y2="120.62" gradientUnits="userSpaceOnUse">
      <stop offset=".12" stop-color="#fab80e"/>
      <stop offset=".25" stop-color="#f7a910"/>
      <stop offset=".55" stop-color="#f18c16"/>
      <stop offset=".81" stop-color="#ee7b19"/>
      <stop offset="1" stop-color="#ed751b"/>
    </linearGradient>
    <linearGradient id="Gradient_bez_nazwy_7-2" data-name="Gradient bez nazwy 7" x1="55.43" y1="29.41" x2="98.58" y2="54.32" xlink:href="#Gradient_bez_nazwy_7"/>
    <linearGradient id="Gradient_bez_nazwy_7-3" data-name="Gradient bez nazwy 7" x1="86.67" y1="91.71" x2="122.72" y2="112.52" xlink:href="#Gradient_bez_nazwy_7"/>
  </defs>
  <g>
    <path class="cls-1" d="M80.45,0C25.62-.69-19.69,51.43,8.76,102.43c.72,1.4,1.21,2.34,1.02,3.76-1.81,6.23-6.61,19.54-8.59,25.62-1.01,2.64-1.35,4.97.9,7.22,1.46,1.39,3.35,1.96,5.14,1.83,7.74-.89,30.63-4,39.08-5.05,1.69-.3,3.18-.19,4.78.36,8.64,2.86,17.79,4.6,27.08,4.79,47.3,1.72,89.15-35.96,81.96-80.06C154.14,23.65,117.51-.27,80.5,0h-.05ZM39.54,111.09c-.28-.85,1.14-2.1,2.01-2.74,1.93-1.47,4.7-3.52,6.47-4.86,1.17-.97,2.37-1.58,2.28-2.74-2.03-5.45-8.15-18.45-10.46-23.87-.4-.83-.68-1.68-1.46-2.17-.53-.34-1.86-.77-2.84-1.05-4.08-1.14-10.14-3.25-14.03-4.07-1.48-.07-1.25,1.7-1.4,2.95-.05.9-.08,1.99-.12,3.04-.05,1.4-.08,2.28-.21,3.33-.09.54-.21.4-.35-.25-1.45-8.09-.63-16.84,2.09-24.5.74-2.09,1.56-4.24,2.94-5.85,3.3-3.79,8.61-9.32,12.16-13.24,1.25-1.33,2.24-2.43,3.14-3.57,1.99-2.7,4.1-5.63,7.13-7.32,10.24-6.05,23.06-9.92,35.83-9.57,2.52.22,4.95,1.05,7.33,1.72,4.93,1.21,10.67,1.25,15.8,2.15,2.22.39,4.29,1.25,6.38,2.19,6.58,2.96,12.47,6.83,17.53,11.53,1.07,1,2.04,2.1,2.23,3.59.41,3.26-1.69,6.53-1.48,9.77.12.85.43,1.46.78,2.37,2.01,4.98,6.21,15.27,8.42,20.7.83,2.43,3.08,2.22,5.2,3.38,2.23,1.16,2.1,3.28,1.72,5.55-6.73,44.91-67.21,63.25-104.09,36.46-1.03-.75-2.66-1.76-2.99-2.89v-.02Z"/>
    <path class="cls-3" d="M107.43,38.69c-.15-.6-.86-1.01-1.35-1.45-4.59-3.64-15.74-13.03-20.14-16.32-.86-.39-1.27-.06-2.38.24-1.34.42-3.47,1.09-5.98,1.88-4.77,1.5-10.24,3.22-15.07,4.74-2.05.64-3.95,1.24-5.92,1.86-1.3.43-2.11.49-2.01,2.01.08,3.05.24,6.06.35,9.18.13,3.32.31,7.48.43,10.52.08,1.16,0,3.63.41,4.27.17.4,1.35.53,2.18.67,3.08.51,5.58.92,9.26,1.54,6.46,1.07,13.23,2.2,19.64,3.26.42.07.8.13,1.19.19,1.22.19,1.5.15,2.25-.72,1.56-1.91,3.03-3.79,4.63-5.77,3.07-3.83,6.76-8.47,9.71-12.16.6-.75,1.17-1.47,1.76-2.2.69-.88,1.08-1.35,1.04-1.74h0Z"/>
    <path class="cls-4" d="M123.35,111.42c.28-.38.42-1.03.67-2.17.2-.93.39-1.85.6-2.81.79-3.71,1.91-9.01,2.68-12.65.29-1.37.53-2.48.67-3.22.1-.79.27-1.22-.38-1.5-5.01-.78-16.76-1.8-23.94-2.65-1.37-.14-2.44-.27-3.15-.33-1.21-.17-1.73.21-2.54,1.04-3.63,3.6-16.18,15.8-19.83,19.49-.45.51-.5.82,0,1.38,2.77,2.66,6.39,5.82,9.76,8.92,1.96,1.78,3.71,3.38,4.76,4.32.84.76,1.52,1.4,2.6.93,4.67-1.69,19.8-7.37,26.58-9.88.54-.22,1.13-.38,1.49-.84h0Z"/>
  </g>
  <g>
    <path class="cls-2" d="M197.89,62.7h-15.29v-28.38c.66-.15,1.61-.33,2.86-.55,1.25-.22,2.6-.33,4.07-.33,2.93,0,5.06.51,6.38,1.54,1.32,1.03,1.98,2.9,1.98,5.61v22.11ZM209.66,51.81c4.77,0,9.08,1.03,12.93,3.08,3.85,2.05,6.89,5.13,9.13,9.24,2.24,4.11,3.35,9.24,3.35,15.4s-1.19,11.22-3.58,15.4c-2.38,4.18-5.7,7.33-9.96,9.46-4.25,2.13-9.2,3.19-14.85,3.19-4.4,0-8.21-.53-11.44-1.59-3.23-1.06-5.94-2.33-8.14-3.8-1.54-1.03-2.68-2.18-3.41-3.46-.73-1.28-1.1-2.77-1.1-4.46v-35.2h15.29v34.1c.88.51,2.05,1.01,3.52,1.49,1.47.48,3.19.71,5.17.71,3.81,0,6.89-1.32,9.24-3.96,2.35-2.64,3.52-6.6,3.52-11.88s-1.14-9.39-3.41-11.88c-2.27-2.49-5.28-3.74-9.02-3.74-2.49,0-4.67.46-6.54,1.38-1.87.92-3.46,1.92-4.79,3.02l-.55-12.32c1.69-1.03,3.76-1.98,6.21-2.86,2.46-.88,5.26-1.32,8.42-1.32Z"/>
    <path class="cls-2" d="M252.78,87.12l-.66-10.56,28.16-4.29c-.22-2.35-1.19-4.44-2.92-6.27-1.72-1.83-4.23-2.75-7.54-2.75-3.52,0-6.42,1.17-8.69,3.52-2.27,2.35-3.48,5.72-3.63,10.12l.44,6.93c.66,4.25,2.42,7.33,5.28,9.24,2.86,1.91,6.34,2.86,10.45,2.86,3.08,0,5.96-.44,8.63-1.32,2.68-.88,4.82-1.83,6.44-2.86,1.03.66,1.89,1.54,2.58,2.64.7,1.1,1.05,2.27,1.05,3.52,0,2.05-.86,3.81-2.59,5.28-1.72,1.47-4.05,2.57-6.98,3.3-2.93.73-6.31,1.1-10.12,1.1-5.72,0-10.8-1.06-15.23-3.19-4.44-2.13-7.92-5.32-10.45-9.57-2.53-4.25-3.8-9.53-3.8-15.84,0-4.55.73-8.54,2.2-11.99,1.47-3.45,3.43-6.29,5.88-8.53,2.46-2.24,5.28-3.91,8.47-5s6.51-1.65,9.96-1.65c4.99,0,9.33.99,13.04,2.97,3.7,1.98,6.62,4.69,8.74,8.14,2.13,3.45,3.19,7.41,3.19,11.88,0,2.2-.59,3.87-1.76,5-1.17,1.14-2.79,1.85-4.84,2.15l-35.31,5.17Z"/>
    <path class="cls-2" d="M320.43,79.75h-15.29v-39.6c.66-.22,1.63-.44,2.92-.66,1.28-.22,2.62-.33,4.02-.33,2.86,0,4.97.51,6.32,1.54,1.36,1.03,2.04,2.9,2.04,5.61v33.44ZM305.14,76.89h15.29v12.21c0,2.2.68,3.78,2.04,4.73,1.36.95,3.25,1.43,5.67,1.43,1.17,0,2.4-.13,3.68-.38,1.28-.26,2.4-.57,3.36-.94.59.59,1.1,1.34,1.54,2.26.44.92.66,2,.66,3.24,0,2.27-1.01,4.18-3.03,5.72-2.02,1.54-5.33,2.31-9.96,2.31-6.01,0-10.72-1.36-14.13-4.07-3.41-2.71-5.12-7.11-5.12-13.2v-13.31ZM314.71,66.44v-11.88h21.34c.37.59.71,1.39,1.04,2.42.33,1.03.5,2.16.5,3.41,0,2.05-.48,3.58-1.43,4.57-.95.99-2.24,1.48-3.85,1.48h-17.6Z"/>
    <path class="cls-2" d="M392.48,89.21c-.81.59-1.85,1.1-3.14,1.54-1.28.44-2.73.66-4.34.66-2.13,0-3.92-.28-5.39-.83-1.47-.55-2.42-1.49-2.86-2.8-2.71-7.11-4.99-13.15-6.82-18.1-1.83-4.95-3.3-9.15-4.4-12.59h-.55c-.22,4.69-.4,9.02-.55,12.98-.15,3.96-.27,7.79-.38,11.49-.11,3.7-.26,7.5-.44,11.39-.18,3.89-.39,8.1-.61,12.65-.81.29-1.83.55-3.08.77-1.25.22-2.53.33-3.85.33-2.64,0-4.67-.46-6.11-1.38-1.43-.92-2.14-2.44-2.14-4.57,0-1.54.09-3.91.27-7.09.18-3.19.4-6.89.66-11.11.26-4.22.53-8.67.83-13.37.29-4.69.61-9.33.93-13.91.33-4.58.61-8.82.83-12.71.59-.73,1.72-1.54,3.41-2.42,1.69-.88,3.96-1.32,6.82-1.32,3.15,0,5.67.51,7.54,1.54,1.87,1.03,3.21,2.64,4.01,4.84,1.25,2.86,2.53,6.09,3.85,9.68,1.32,3.59,2.64,7.22,3.96,10.89,1.32,3.67,2.53,7,3.63,10.01h.55c2.2-6.67,4.44-13.16,6.71-19.47,2.27-6.31,4.25-11.55,5.94-15.73.95-.51,2.18-.93,3.69-1.26,1.5-.33,3.1-.5,4.79-.5,2.93,0,5.32.44,7.15,1.32,1.83.88,2.93,2.16,3.3,3.85.29,1.39.61,3.59.94,6.6.33,3.01.68,6.49,1.04,10.45.37,3.96.73,8.1,1.1,12.43.37,4.33.7,8.53.99,12.6.29,4.07.57,7.75.83,11.05.26,3.3.42,5.9.5,7.81-1.1.59-2.22,1.03-3.36,1.32-1.14.29-2.55.44-4.23.44-2.2,0-4.09-.4-5.67-1.21-1.58-.81-2.44-2.38-2.58-4.73-.29-5.94-.57-11.6-.83-17-.26-5.39-.46-10.34-.61-14.85-.15-4.51-.29-8.34-.44-11.5h-.55c-1.03,3.3-2.48,7.46-4.35,12.49-1.87,5.02-4.2,11.46-6.98,19.3Z"/>
    <path class="cls-2" d="M455.95,107.58c-7.41,0-13.29-1.43-17.66-4.29-4.36-2.86-6.54-7.15-6.54-12.87,0-4.99,1.54-8.8,4.62-11.44,3.08-2.64,7.66-4.25,13.75-4.84l14.74-1.54v-1.65c0-2.64-.99-4.55-2.97-5.72-1.98-1.17-4.77-1.76-8.36-1.76-2.79,0-5.54.35-8.25,1.04-2.71.7-5.13,1.52-7.26,2.48-.81-.59-1.5-1.45-2.09-2.58-.59-1.14-.88-2.33-.88-3.58,0-2.93,1.58-5.06,4.73-6.38,2.13-.88,4.58-1.54,7.37-1.98,2.79-.44,5.54-.66,8.25-.66,7.41,0,13.33,1.56,17.76,4.68,4.44,3.12,6.66,8.01,6.66,14.68v25.08c0,1.83-.46,3.28-1.38,4.34-.92,1.06-2.07,2.04-3.46,2.92-2.13,1.25-4.8,2.24-8.03,2.97-3.23.73-6.89,1.1-11,1.1ZM455.95,96.14c1.91,0,3.69-.18,5.34-.55,1.65-.37,2.88-.81,3.68-1.32v-11.22l-9.9.88c-2.64.22-4.7.81-6.16,1.76-1.47.95-2.2,2.35-2.2,4.18s.73,3.43,2.2,4.56c1.46,1.14,3.81,1.71,7.04,1.71Z"/>
    <path class="cls-2" d="M508.3,79.75h-15.29v-39.6c.66-.22,1.63-.44,2.92-.66,1.28-.22,2.62-.33,4.01-.33,2.86,0,4.97.51,6.33,1.54,1.36,1.03,2.04,2.9,2.04,5.61v33.44ZM493.01,76.89h15.29v12.21c0,2.2.68,3.78,2.04,4.73,1.36.95,3.25,1.43,5.67,1.43,1.17,0,2.4-.13,3.68-.38,1.28-.26,2.4-.57,3.36-.94.59.59,1.1,1.34,1.54,2.26.44.92.66,2,.66,3.24,0,2.27-1.01,4.18-3.03,5.72-2.02,1.54-5.33,2.31-9.96,2.31-6.01,0-10.72-1.36-14.13-4.07-3.41-2.71-5.12-7.11-5.12-13.2v-13.31ZM502.58,66.44v-11.88h21.34c.37.59.71,1.39,1.04,2.42.33,1.03.5,2.16.5,3.41,0,2.05-.48,3.58-1.43,4.57-.95.99-2.24,1.48-3.85,1.48h-17.6Z"/>
    <path class="cls-2" d="M541.74,87.12l-.66-10.56,28.16-4.29c-.22-2.35-1.19-4.44-2.92-6.27-1.72-1.83-4.23-2.75-7.53-2.75-3.52,0-6.42,1.17-8.69,3.52-2.27,2.35-3.48,5.72-3.63,10.12l.44,6.93c.66,4.25,2.42,7.33,5.28,9.24,2.86,1.91,6.34,2.86,10.45,2.86,3.08,0,5.96-.44,8.63-1.32,2.68-.88,4.82-1.83,6.44-2.86,1.03.66,1.89,1.54,2.58,2.64.7,1.1,1.04,2.27,1.04,3.52,0,2.05-.86,3.81-2.58,5.28-1.72,1.47-4.05,2.57-6.99,3.3-2.93.73-6.31,1.1-10.12,1.1-5.72,0-10.8-1.06-15.23-3.19-4.44-2.13-7.92-5.32-10.45-9.57-2.53-4.25-3.79-9.53-3.79-15.84,0-4.55.73-8.54,2.2-11.99,1.47-3.45,3.43-6.29,5.89-8.53,2.46-2.24,5.28-3.91,8.47-5s6.51-1.65,9.96-1.65c4.99,0,9.33.99,13.04,2.97,3.7,1.98,6.62,4.69,8.75,8.14,2.13,3.45,3.19,7.41,3.19,11.88,0,2.2-.59,3.87-1.76,5-1.17,1.14-2.79,1.85-4.84,2.15l-35.31,5.17Z"/>
  </g>
</svg>